<?xml version="1.0" encoding="utf-8"?>
<!-- Generator: Adobe Illustrator 19.0.1, SVG Export Plug-In . SVG Version: 6.00 Build 0)  -->
<svg version="1.1" id="Слой_1" xmlns="http://www.w3.org/2000/svg" xmlns:xlink="http://www.w3.org/1999/xlink" x="0px" y="0px"
	 viewBox="0 0 107.5 107.5" style="enable-background:new 0 0 107.5 107.5;" xml:space="preserve">
<style type="text/css">
	.st0{fill:#9AA4A6;}
	.st1{fill:#FFFFFF;}
</style>
<path class="st0" d="M95.9,107.5H12.4c-6.6,0-12-5.4-12-12V12c0-6.6,5.4-12,12-12h83.5c6.6,0,12,5.4,12,12v83.5
	C107.9,102.1,102.5,107.5,95.9,107.5z"/>
<g>
	<path class="st1" d="M19.9,49.9V37.4h-8.6v12.5h-7V20.7h7V32h8.6V20.7h7v29.3H19.9z"/>
	<path class="st1" d="M46.5,43.6H38l-1.5,6.3h-7.4l9-29.3h8.5l9,29.3H48L46.5,43.6z M39.1,38.6h6.3l-3-12.4h-0.2L39.1,38.6z"/>
	<path class="st1" d="M79.4,29.6c0,1-0.1,2-0.4,2.8c-0.3,0.8-0.7,1.6-1.2,2.3c-0.5,0.7-1.2,1.2-1.9,1.7c-0.7,0.5-1.5,0.9-2.3,1.2
		l7.7,12.3h-7.9l-6.3-11.2h-2.4v11.2h-7V20.7h9.7c4,0,7,0.7,9,2.2C78.4,24.3,79.4,26.5,79.4,29.6z M72.2,29.6c0-1.4-0.4-2.4-1.2-3.1
		c-0.8-0.6-2-1-3.6-1h-2.7V34h2.9c1.5,0,2.7-0.3,3.4-1C71.8,32.2,72.2,31.1,72.2,29.6z"/>
	<path class="st1" d="M107.3,35.1c0,3-0.4,5.4-1.2,7.3c-0.8,1.9-1.9,3.4-3.3,4.5c-1.4,1.1-2.9,1.9-4.7,2.3c-1.8,0.4-3.6,0.6-5.5,0.6
		h-8.9V20.7h8.4c1.9,0,3.8,0.2,5.6,0.6c1.8,0.4,3.4,1.1,4.8,2.2c1.4,1.1,2.5,2.5,3.4,4.4C106.8,29.7,107.3,32.1,107.3,35.1z
		 M100,35.1c0-1.9-0.2-3.5-0.5-4.8c-0.4-1.2-0.8-2.2-1.5-2.9c-0.6-0.7-1.3-1.2-2.2-1.4c-0.8-0.3-1.7-0.4-2.7-0.4h-2.4v19.1h2.4
		c1,0,1.9-0.1,2.8-0.4c0.8-0.3,1.6-0.8,2.2-1.5c0.6-0.7,1.1-1.7,1.4-3C99.8,38.6,100,37.1,100,35.1z"/>
	<path class="st1" d="M15,74.2H8.2l-1.2,5H1.1l7.2-23.4h6.8l7.2,23.4h-6L15,74.2z M9.1,70.1h5l-2.4-9.9h-0.2L9.1,70.1z"/>
	<path class="st1" d="M32.2,60.1v19.1h-5.6V60.1h-6v-4.3h18L38,60.1H32.2z"/>
	<path class="st1" d="M53.2,79.2v-10h-6.9v10h-5.6V55.8h5.6v9.1h6.9v-9.1h5.6v23.4H53.2z"/>
	<path class="st1" d="M83.2,67.5c0,1.9-0.2,3.6-0.7,5.2c-0.5,1.5-1.2,2.8-2.1,3.9c-0.9,1.1-2,1.9-3.3,2.4c-1.3,0.6-2.8,0.8-4.4,0.8
		c-3.3,0-5.9-1.1-7.7-3.2c-1.8-2.1-2.8-5.2-2.8-9.1c0-1.9,0.2-3.6,0.7-5.2c0.5-1.5,1.2-2.8,2.1-3.9c0.9-1.1,2-1.9,3.3-2.4
		c1.3-0.6,2.8-0.8,4.4-0.8c3.3,0,5.9,1.1,7.7,3.2C82.3,60.5,83.2,63.6,83.2,67.5z M77.4,67.5c0-1.5-0.1-2.7-0.3-3.8
		c-0.2-1-0.5-1.9-0.9-2.5s-0.9-1.1-1.5-1.4c-0.6-0.3-1.2-0.4-2-0.4c-1.5,0-2.7,0.6-3.5,1.9c-0.8,1.2-1.2,3.3-1.2,6.3
		c0,3,0.4,5.1,1.2,6.3c0.8,1.3,2,1.9,3.5,1.9c1.6,0,2.7-0.6,3.5-1.9C77,72.6,77.4,70.5,77.4,67.5z"/>
	<path class="st1" d="M97.5,79.2l-6.6-17.9h-0.1c0.1,0.4,0.2,0.8,0.3,1.5s0.2,1.3,0.3,2.1s0.2,1.7,0.2,2.6c0.1,0.9,0.1,1.9,0.1,3
		v8.8h-5V55.8h7l6.7,17.9h0.1c-0.2-0.9-0.4-2-0.6-3.5s-0.3-3.3-0.3-5.4v-8.9h5v23.4H97.5z"/>
</g>
</svg>
